<svg width="1363" height="163" viewBox="0 0 1363 163" fill="none" xmlns="http://www.w3.org/2000/svg">
<path d="M0 15C0 6.71573 6.71573 0 15 0H37V163H15C6.71573 163 0 156.284 0 148V15Z" fill="#424242"/>
<rect width="1097" height="163" transform="translate(37)" fill="#F0F0F0"/>
<path d="M101.906 53.9219L94.3945 51.2383V48.0859L104.602 52.375V54.6367L101.906 53.9219ZM94.3945 56.1719L101.918 53.4297L104.602 52.7852V55.0352L94.3945 59.3242V56.1719ZM119.051 57.4375L123.07 43.9375H126.984L121.043 61H118.465L119.051 57.4375ZM115.348 43.9375L119.355 57.4375L119.965 61H117.363L111.457 43.9375H115.348ZM133.688 61.2344C132.703 61.2344 131.82 61.0781 131.039 60.7656C130.258 60.4453 129.594 60.0039 129.047 59.4414C128.508 58.8789 128.094 58.2266 127.805 57.4844C127.516 56.7344 127.371 55.9375 127.371 55.0938V54.625C127.371 53.6641 127.508 52.7852 127.781 51.9883C128.055 51.1914 128.445 50.5 128.953 49.9141C129.469 49.3281 130.094 48.8789 130.828 48.5664C131.562 48.2461 132.391 48.0859 133.312 48.0859C134.211 48.0859 135.008 48.2344 135.703 48.5312C136.398 48.8281 136.98 49.25 137.449 49.7969C137.926 50.3438 138.285 51 138.527 51.7656C138.77 52.5234 138.891 53.3672 138.891 54.2969V55.7031H128.812V53.4531H135.574V53.1953C135.574 52.7266 135.488 52.3086 135.316 51.9414C135.152 51.5664 134.902 51.2695 134.566 51.0508C134.23 50.832 133.801 50.7227 133.277 50.7227C132.832 50.7227 132.449 50.8203 132.129 51.0156C131.809 51.2109 131.547 51.4844 131.344 51.8359C131.148 52.1875 131 52.6016 130.898 53.0781C130.805 53.5469 130.758 54.0625 130.758 54.625V55.0938C130.758 55.6016 130.828 56.0703 130.969 56.5C131.117 56.9297 131.324 57.3008 131.59 57.6133C131.863 57.9258 132.191 58.168 132.574 58.3398C132.965 58.5117 133.406 58.5977 133.898 58.5977C134.508 58.5977 135.074 58.4805 135.598 58.2461C136.129 58.0039 136.586 57.6406 136.969 57.1562L138.609 58.9375C138.344 59.3203 137.98 59.6875 137.52 60.0391C137.066 60.3906 136.52 60.6797 135.879 60.9062C135.238 61.125 134.508 61.2344 133.688 61.2344ZM147.668 57.4961C147.668 57.2539 147.598 57.0352 147.457 56.8398C147.316 56.6445 147.055 56.4648 146.672 56.3008C146.297 56.1289 145.754 55.9727 145.043 55.832C144.402 55.6914 143.805 55.5156 143.25 55.3047C142.703 55.0859 142.227 54.8242 141.82 54.5195C141.422 54.2148 141.109 53.8555 140.883 53.4414C140.656 53.0195 140.543 52.5391 140.543 52C140.543 51.4688 140.656 50.9688 140.883 50.5C141.117 50.0312 141.449 49.6172 141.879 49.2578C142.316 48.8906 142.848 48.6055 143.473 48.4023C144.105 48.1914 144.816 48.0859 145.605 48.0859C146.707 48.0859 147.652 48.2617 148.441 48.6133C149.238 48.9648 149.848 49.4492 150.27 50.0664C150.699 50.6758 150.914 51.3711 150.914 52.1523H147.539C147.539 51.8242 147.469 51.5312 147.328 51.2734C147.195 51.0078 146.984 50.8008 146.695 50.6523C146.414 50.4961 146.047 50.418 145.594 50.418C145.219 50.418 144.895 50.4844 144.621 50.6172C144.348 50.7422 144.137 50.9141 143.988 51.1328C143.848 51.3438 143.777 51.5781 143.777 51.8359C143.777 52.0312 143.816 52.207 143.895 52.3633C143.98 52.5117 144.117 52.6484 144.305 52.7734C144.492 52.8984 144.734 53.0156 145.031 53.125C145.336 53.2266 145.711 53.3203 146.156 53.4062C147.07 53.5938 147.887 53.8398 148.605 54.1445C149.324 54.4414 149.895 54.8477 150.316 55.3633C150.738 55.8711 150.949 56.5391 150.949 57.3672C150.949 57.9297 150.824 58.4453 150.574 58.9141C150.324 59.3828 149.965 59.793 149.496 60.1445C149.027 60.4883 148.465 60.7578 147.809 60.9531C147.16 61.1406 146.43 61.2344 145.617 61.2344C144.438 61.2344 143.438 61.0234 142.617 60.6016C141.805 60.1797 141.188 59.6445 140.766 58.9961C140.352 58.3398 140.145 57.668 140.145 56.9805H143.344C143.359 57.4414 143.477 57.8125 143.695 58.0938C143.922 58.375 144.207 58.5781 144.551 58.7031C144.902 58.8281 145.281 58.8906 145.688 58.8906C146.125 58.8906 146.488 58.832 146.777 58.7148C147.066 58.5898 147.285 58.4258 147.434 58.2227C147.59 58.0117 147.668 57.7695 147.668 57.4961ZM159.352 48.3203V50.7109H151.969V48.3203H159.352ZM153.797 45.1914H157.172V57.1797C157.172 57.5469 157.219 57.8281 157.312 58.0234C157.414 58.2188 157.562 58.3555 157.758 58.4336C157.953 58.5039 158.199 58.5391 158.496 58.5391C158.707 58.5391 158.895 58.5312 159.059 58.5156C159.23 58.4922 159.375 58.4688 159.492 58.4453L159.504 60.9297C159.215 61.0234 158.902 61.0977 158.566 61.1523C158.23 61.207 157.859 61.2344 157.453 61.2344C156.711 61.2344 156.062 61.1133 155.508 60.8711C154.961 60.6211 154.539 60.2227 154.242 59.6758C153.945 59.1289 153.797 58.4102 153.797 57.5195V45.1914ZM168.117 58.1406V52.4922C168.117 52.0859 168.051 51.7383 167.918 51.4492C167.785 51.1523 167.578 50.9219 167.297 50.7578C167.023 50.5938 166.668 50.5117 166.23 50.5117C165.855 50.5117 165.531 50.5781 165.258 50.7109C164.984 50.8359 164.773 51.0195 164.625 51.2617C164.477 51.4961 164.402 51.7734 164.402 52.0938H161.027C161.027 51.5547 161.152 51.043 161.402 50.5586C161.652 50.0742 162.016 49.6484 162.492 49.2812C162.969 48.9062 163.535 48.6133 164.191 48.4023C164.855 48.1914 165.598 48.0859 166.418 48.0859C167.402 48.0859 168.277 48.25 169.043 48.5781C169.809 48.9062 170.41 49.3984 170.848 50.0547C171.293 50.7109 171.516 51.5312 171.516 52.5156V57.9414C171.516 58.6367 171.559 59.207 171.645 59.6523C171.73 60.0898 171.855 60.4727 172.02 60.8008V61H168.609C168.445 60.6562 168.32 60.2266 168.234 59.7109C168.156 59.1875 168.117 58.6641 168.117 58.1406ZM168.562 53.2773L168.586 55.1875H166.699C166.254 55.1875 165.867 55.2383 165.539 55.3398C165.211 55.4414 164.941 55.5859 164.73 55.7734C164.52 55.9531 164.363 56.1641 164.262 56.4062C164.168 56.6484 164.121 56.9141 164.121 57.2031C164.121 57.4922 164.188 57.7539 164.32 57.9883C164.453 58.2148 164.645 58.3945 164.895 58.5273C165.145 58.6523 165.438 58.7148 165.773 58.7148C166.281 58.7148 166.723 58.6133 167.098 58.4102C167.473 58.207 167.762 57.957 167.965 57.6602C168.176 57.3633 168.285 57.082 168.293 56.8164L169.184 58.2461C169.059 58.5664 168.887 58.8984 168.668 59.2422C168.457 59.5859 168.188 59.9102 167.859 60.2148C167.531 60.5117 167.137 60.7578 166.676 60.9531C166.215 61.1406 165.668 61.2344 165.035 61.2344C164.23 61.2344 163.5 61.0742 162.844 60.7539C162.195 60.4258 161.68 59.9766 161.297 59.4062C160.922 58.8281 160.734 58.1719 160.734 57.4375C160.734 56.7734 160.859 56.1836 161.109 55.668C161.359 55.1523 161.727 54.7188 162.211 54.3672C162.703 54.0078 163.316 53.7383 164.051 53.5586C164.785 53.3711 165.637 53.2773 166.605 53.2773H168.562Z" fill="#888888"/>
<path d="M106.688 119H99.1172L99.1641 112.672H106.688C108.25 112.672 109.57 112.297 110.648 111.547C111.742 110.797 112.57 109.68 113.133 108.195C113.711 106.695 114 104.852 114 102.664V101.188C114 99.5469 113.836 98.1094 113.508 96.875C113.195 95.625 112.727 94.5859 112.102 93.7578C111.477 92.9141 110.695 92.2812 109.758 91.8594C108.836 91.4375 107.773 91.2266 106.57 91.2266H98.9766V84.875H106.57C108.883 84.875 111 85.2734 112.922 86.0703C114.859 86.8516 116.531 87.9766 117.938 89.4453C119.359 90.8984 120.453 92.625 121.219 94.625C122 96.6094 122.391 98.8125 122.391 101.234V102.664C122.391 105.07 122 107.273 121.219 109.273C120.453 111.273 119.367 113 117.961 114.453C116.555 115.906 114.891 117.031 112.969 117.828C111.062 118.609 108.969 119 106.688 119ZM103.828 84.875V119H95.6016V84.875H103.828ZM138.586 119.469C136.523 119.469 134.68 119.148 133.055 118.508C131.43 117.852 130.055 116.953 128.93 115.812C127.82 114.672 126.969 113.359 126.375 111.875C125.797 110.391 125.508 108.82 125.508 107.164V106.273C125.508 104.414 125.766 102.695 126.281 101.117C126.797 99.5234 127.562 98.1328 128.578 96.9453C129.594 95.7578 130.867 94.8359 132.398 94.1797C133.93 93.5078 135.711 93.1719 137.742 93.1719C139.539 93.1719 141.148 93.4609 142.57 94.0391C143.992 94.6172 145.195 95.4453 146.18 96.5234C147.18 97.6016 147.938 98.9062 148.453 100.438C148.984 101.969 149.25 103.688 149.25 105.594V108.805H128.531V103.859H141.539V103.25C141.555 102.406 141.406 101.688 141.094 101.094C140.797 100.5 140.359 100.047 139.781 99.7344C139.203 99.4219 138.5 99.2656 137.672 99.2656C136.812 99.2656 136.102 99.4531 135.539 99.8281C134.992 100.203 134.562 100.719 134.25 101.375C133.953 102.016 133.742 102.758 133.617 103.602C133.492 104.445 133.43 105.336 133.43 106.273V107.164C133.43 108.102 133.555 108.953 133.805 109.719C134.07 110.484 134.445 111.141 134.93 111.688C135.43 112.219 136.023 112.633 136.711 112.93C137.414 113.227 138.211 113.375 139.102 113.375C140.18 113.375 141.242 113.172 142.289 112.766C143.336 112.359 144.234 111.688 144.984 110.75L148.57 115.016C148.055 115.75 147.32 116.461 146.367 117.148C145.43 117.836 144.305 118.398 142.992 118.836C141.68 119.258 140.211 119.469 138.586 119.469ZM160.43 99.0078V119H152.531V93.6406H159.938L160.43 99.0078ZM159.469 105.453L157.664 105.5C157.664 103.719 157.875 102.078 158.297 100.578C158.719 99.0781 159.344 97.7734 160.172 96.6641C161 95.5547 162.016 94.6953 163.219 94.0859C164.438 93.4766 165.844 93.1719 167.438 93.1719C168.547 93.1719 169.555 93.3438 170.461 93.6875C171.367 94.0156 172.148 94.5391 172.805 95.2578C173.461 95.9609 173.961 96.8828 174.305 98.0234C174.664 99.1484 174.844 100.5 174.844 102.078V119H166.945V103.086C166.945 102.008 166.82 101.195 166.57 100.648C166.336 100.102 165.992 99.7344 165.539 99.5469C165.086 99.3594 164.531 99.2656 163.875 99.2656C163.188 99.2656 162.57 99.4219 162.023 99.7344C161.477 100.047 161.008 100.484 160.617 101.047C160.242 101.594 159.953 102.242 159.75 102.992C159.562 103.742 159.469 104.562 159.469 105.453ZM173.953 105.453L171.75 105.5C171.75 103.719 171.945 102.078 172.336 100.578C172.742 99.0781 173.344 97.7734 174.141 96.6641C174.953 95.5547 175.961 94.6953 177.164 94.0859C178.367 93.4766 179.766 93.1719 181.359 93.1719C182.516 93.1719 183.578 93.3438 184.547 93.6875C185.516 94.0312 186.352 94.5859 187.055 95.3516C187.758 96.1172 188.305 97.1328 188.695 98.3984C189.086 99.6484 189.281 101.195 189.281 103.039V119H181.359V103.039C181.359 101.992 181.234 101.203 180.984 100.672C180.75 100.125 180.406 99.7578 179.953 99.5703C179.5 99.3672 178.961 99.2656 178.336 99.2656C177.586 99.2656 176.938 99.4219 176.391 99.7344C175.844 100.047 175.383 100.484 175.008 101.047C174.648 101.594 174.383 102.242 174.211 102.992C174.039 103.742 173.953 104.562 173.953 105.453ZM192.82 106.578V106.086C192.82 104.227 193.086 102.516 193.617 100.953C194.148 99.375 194.93 98.0078 195.961 96.8516C196.992 95.6953 198.266 94.7969 199.781 94.1562C201.297 93.5 203.047 93.1719 205.031 93.1719C207.031 93.1719 208.789 93.5 210.305 94.1562C211.836 94.7969 213.117 95.6953 214.148 96.8516C215.18 98.0078 215.961 99.375 216.492 100.953C217.023 102.516 217.289 104.227 217.289 106.086V106.578C217.289 108.422 217.023 110.133 216.492 111.711C215.961 113.273 215.18 114.641 214.148 115.812C213.117 116.969 211.844 117.867 210.328 118.508C208.812 119.148 207.062 119.469 205.078 119.469C203.094 119.469 201.336 119.148 199.805 118.508C198.273 117.867 196.992 116.969 195.961 115.812C194.93 114.641 194.148 113.273 193.617 111.711C193.086 110.133 192.82 108.422 192.82 106.578ZM200.719 106.086V106.578C200.719 107.531 200.789 108.422 200.93 109.25C201.07 110.078 201.305 110.805 201.633 111.43C201.961 112.039 202.406 112.516 202.969 112.859C203.531 113.203 204.234 113.375 205.078 113.375C205.906 113.375 206.594 113.203 207.141 112.859C207.703 112.516 208.148 112.039 208.477 111.43C208.805 110.805 209.039 110.078 209.18 109.25C209.32 108.422 209.391 107.531 209.391 106.578V106.086C209.391 105.164 209.32 104.297 209.18 103.484C209.039 102.656 208.805 101.93 208.477 101.305C208.148 100.664 207.703 100.164 207.141 99.8047C206.578 99.4453 205.875 99.2656 205.031 99.2656C204.203 99.2656 203.508 99.4453 202.945 99.8047C202.398 100.164 201.961 100.664 201.633 101.305C201.305 101.93 201.07 102.656 200.93 103.484C200.789 104.297 200.719 105.164 200.719 106.086Z" fill="black"/>
<path d="M1134 0H1348C1356.28 0 1363 6.71573 1363 15V148C1363 156.284 1356.28 163 1348 163H1134V0Z" fill="#E7523C"/>
<path d="M1280.07 47.5H1216.93L1214.5 49.9286V113.071L1216.93 115.5H1280.07L1282.5 113.071V49.9286L1280.07 47.5ZM1277.64 110.643H1233.93V100.929H1245.1C1246.56 103.843 1249.96 105.786 1253.36 105.786C1258.7 105.786 1263.07 101.414 1263.07 96.0714C1263.07 90.7286 1258.7 86.3571 1253.36 86.3571C1248.01 86.3571 1243.64 90.7286 1243.64 96.0714H1229.07V110.643H1219.36V52.3571H1229.07V63.5286C1226.16 64.9857 1224.21 68.3857 1224.21 71.7857C1224.21 77.1286 1228.59 81.5 1233.93 81.5C1239.27 81.5 1243.64 77.1286 1243.64 71.7857H1253.36C1253.36 77.1286 1257.73 81.5 1263.07 81.5C1268.41 81.5 1272.79 77.1286 1272.79 71.7857C1272.79 66.4429 1268.41 62.0714 1263.07 62.0714C1259.67 62.0714 1256.27 64.0143 1254.81 66.9286H1242.19C1240.73 64.0143 1237.33 62.0714 1233.93 62.0714V52.3571H1277.64V110.643ZM1248.5 96.0714C1248.5 93.1571 1250.44 91.2143 1253.36 91.2143C1256.27 91.2143 1258.21 93.1571 1258.21 96.0714C1258.21 98.9857 1256.27 100.929 1253.36 100.929C1250.44 100.929 1248.5 98.9857 1248.5 96.0714ZM1233.93 66.9286C1236.84 66.9286 1238.79 68.8714 1238.79 71.7857C1238.79 74.7 1236.84 76.6429 1233.93 76.6429C1231.01 76.6429 1229.07 74.7 1229.07 71.7857C1229.07 68.8714 1231.01 66.9286 1233.93 66.9286ZM1263.07 66.9286C1265.99 66.9286 1267.93 68.8714 1267.93 71.7857C1267.93 74.7 1265.99 76.6429 1263.07 76.6429C1260.16 76.6429 1258.21 74.7 1258.21 71.7857C1258.21 68.8714 1260.16 66.9286 1263.07 66.9286Z" fill="white"/>
</svg>
